PathFileType	4	(X/Y/Z)	7_2_98_p1_0-641.trc
DataRate	CameraRate	NumFrames	NumMarkers	Units	OrigDataRate	OrigDataStartFrame	OrigNumFrames
55.0	55.0	5	27	m	55.0	240	642
Frame#	Time	RHip			RKnee			RAnkle			RBigToe			RSmallToe			RHeel			LHip			LKnee			LAnkle			LBigToe			LSmallToe			LHeel			Neck			Head			Nose			RShoulder			RElbow			RWrist			RThumb			RIndex			RPinky			LShoulder			LElbow			LWrist			LThumb			LIndex			LPinky			
		X1	Y1	Z1	X2	Y2	Z2	X3	Y3	Z3	X4	Y4	Z4	X5	Y5	Z5	X6	Y6	Z6	X7	Y7	Z7	X8	Y8	Z8	X9	Y9	Z9	X10	Y10	Z10	X11	Y11	Z11	X12	Y12	Z12	X13	Y13	Z13	X14	Y14	Z14	X15	Y15	Z15	X16	Y16	Z16	X17	Y17	Z17	X18	Y18	Z18	X19	Y19	Z19	X20	Y20	Z20	X21	Y21	Z21	X22	Y22	Z22	X23	Y23	Z23	X24	Y24	Z24	X25	Y25	Z25	X26	Y26	Z26	X27	Y27	Z27	
240	4.363636363636363	0.2873960712257438	0.31799586789726314	1.127512536871611	0.29558513770369726	0.29228899256461877	1.5750826505810718	0.2838804644909887	0.3292768374778315	2.059950149955244	0.2629716815927244	0.1102803266314041	2.006231690621924	0.3268085103426658	0.13034810061480578	2.005468342127742	0.26898753012079	0.3577114417189453	2.135507773788775	0.06654594056420107	0.3326312289911094	1.142570611061749	0.09400454490769514	0.28876623103186605	1.5858055089193668	0.09736166186275676	0.2749063104886988	2.0068414197673103	0.10646358671480158	0.07625551136780097	1.9927936057809055	0.04881448374121925	0.11620728286612944	1.9880559275791128	0.1115564481342164	0.3261337566782364	2.0898252116625033	0.17851352396383333	0.3938991106922018	0.6070724199814892	0.1860044427906482	0.37056975699918004	0.37946188089068866	0.18897957425384096	0.3199208026813562	0.49164130687876445	0.34626806386279213	0.379554723395014	0.6857425005303501	0.4529287138671739	0.3451775037576942	0.9258250594007782	0.38826312712707145	0.17195685260357174	1.0595802971672135	0.31741020110095336	0.08505967751407253	1.1260426583707541	0.3271708092542406	0.05746796983562669	1.1361666484049853	0.37891581736936286	0.1319465641234152	1.1678677828468726	0.027243586570460342	0.3908487960036204	0.7014227160318541	-0.056952625813155765	0.3634554779030583	0.9432409540244086	-0.0527716294863781	0.24952960375143698	1.1461607884165121	0.0016280836223832298	0.18168054057390115	1.2139769472441935	-0.019448818541496667	0.1431945279125692	1.2355787939135088	-0.056711339365813025	0.2008233190966006	1.2548220921286828
241	4.381818181818182	0.2884697828312179	0.3190211900459964	1.1358836606337628	0.29272467716147416	0.2890596071662238	1.583010190904737	0.2849484859678165	0.3297739707707813	2.0662979638130383	0.2633016978120445	0.08804703704184282	1.9882451493516513	0.32288356375901445	0.1198729871959068	1.9977134798233944	0.2647854429877592	0.35615324788419195	2.136840023567576	0.06597783988837544	0.3319169722440342	1.1378050834425708	0.09399069868397467	0.288236387606032	1.5866620158280513	0.09736736851568237	0.2748172321122989	2.0067649273321737	0.10601328182763788	0.07584679151117915	1.9929931240667915	0.04880815855663097	0.11587323963835544	1.9882195206293227	0.10662315871834252	0.3408094334868533	2.1013811992900218	0.1784569259017842	0.3939136393036646	0.6074239208553355	0.18587829437745979	0.3705271949741978	0.3799775036810472	0.1890055993778898	0.31966874745417695	0.4915779451880644	0.35009247002058325	0.38939536549895787	0.688079412251431	0.4529345674997951	0.3449053155878172	0.925137889770905	0.39180791594659486	0.18284558046395552	1.043387834902501	0.3009041096572128	0.12260395437299582	1.0985472201412374	0.3089175117920336	0.0963180535567613	1.1115535269244972	0.35096447960898725	0.1251783238024457	1.1414334315045223	0.027280589543986426	0.39087388714871485	0.7012950741098801	-0.06175718273732416	0.3607700318332513	0.9436508826820694	-0.051020234338384096	0.26326712752662795	1.1434213619539297	0.006945318276407391	0.20156002918388433	1.187004600792736	-0.009059335635607136	0.15545766121076474	1.2274648818440614	-0.04931270626986685	0.19899679240949533	1.2464339725715536
242	4.4	0.28879106855928	0.31927497844714076	1.1439872217519533	0.29255031159039674	0.2887446527747473	1.5833336556196875	0.2838008367721548	0.32920086404061394	2.060022386433291	0.26283220818620584	0.11010628239562377	2.0064841051198745	0.3256663454084328	0.12926121002158594	2.0008908597440693	0.2635149885976859	0.3555096725777303	2.128164736646138	0.06751795940347201	0.33328684892824867	1.1457492115408963	0.09401489006504553	0.2882570198600731	1.5867554517669977	0.09725516573798854	0.2750827896211328	2.006708026975006	0.1061040180209285	0.07644765318947186	1.9933635139690533	0.048165420925845345	0.1185843937849455	1.9842355996448207	0.10664994531388795	0.34063801002013777	2.1017337978047763	0.1784415026076689	0.3938486609786882	0.6072877724205202	0.1831889676643446	0.3608242021735208	0.3786001742881805	0.18593347272061744	0.31036273317519153	0.4899553781098725	0.3462195095683535	0.3796272567701259	0.6858258569978075	0.4570837337314163	0.3561799800480826	0.9294011221430839	0.3904032528553503	0.18302968380494775	1.0354467942367656	0.2961860360249609	0.13656326069578892	1.0930103112456862	0.30278414002672516	0.0960921934197271	1.084748996291155	0.33337202239899905	0.11753125621115532	1.1128340348664354	0.027519082209757493	0.3912510405948849	0.6979810850128788	-0.06637916256079925	0.37457946337981046	0.9491507079389162	-0.05128636690397949	0.2645407659508319	1.1324177210084236	0.006997201812049079	0.20193081629070272	1.1801798259510932	-0.007982925010336943	0.16710794879478702	1.2083291292518994	-0.034057537977838594	0.18892956823114593	1.231655102416939
243	4.418181818181818	0.2897087129253357	0.3166861530995708	1.1520404656069538	0.29245392276868754	0.2885308935686017	1.5833785849188833	0.27814993660528164	0.32722072471222385	2.063601214997561	0.2617023295551789	0.11004233922627082	2.010403564353574	0.32568786791396176	0.1295222565222522	2.0006283263474574	0.2647114553776594	0.35589887493560207	2.133428151731717	0.06841940867332852	0.33268465248843104	1.150428691210633	0.09489032428884427	0.2885979980209607	1.5920210541944797	0.09723631719201244	0.27499039036897466	2.006850455425899	0.10867452351371307	0.08692902865101287	2.0012776045653102	0.04808998740450553	0.11869055980990316	1.9842385024370832	0.1114712362940276	0.32582803991098214	2.0902196614150848	0.17844192096115455	0.3938053810436562	0.6074022627774552	0.1831192219486462	0.3608523802065349	0.37880233528744917	0.18592322145200163	0.3103508498401065	0.4901245694866789	0.3419298770052731	0.3783756603328653	0.6824386702454978	0.461268087417774	0.3666089748474908	0.9247856464033004	0.3931165749642276	0.19367212829770655	1.023633527571118	0.2897477903660699	0.15744300021870314	1.067070754314199	0.2914005664553196	0.13409832339166716	1.0886450356411148	0.32707757859151193	0.12419703943076414	1.0952580827357552	0.02706988158966296	0.39097423389071234	0.7017560050199336	-0.0724502101576839	0.38648423750173433	0.9534399642936356	-0.0507371753396987	0.26522491394476	1.1290888458725545	0.011213929577682703	0.20560878047442666	1.1768046674428971	-0.003921631063234077	0.18327100948719055	1.1862187069961876	-0.027531134369064108	0.18975012506712788	1.2260353985726653
244	4.4363636363636365	0.29112088940988573	0.31412617602334203	1.164252589314324	0.2924295695162813	0.2884301064898428	1.5833487939188735	0.2803338508753983	0.3277719457922258	2.064611995074263	0.2616629389676964	0.11010405838555941	2.010186041271993	0.32563057930415745	0.12965707622851794	2.0005765458924563	0.2646498704429202	0.3557119195359319	2.133855716035128	0.06647188998249642	0.3301142503335548	1.1654570299321219	0.09564353976042686	0.2885556037562125	1.5881831842216951	0.0972824159052423	0.27478896263246066	2.0069379125447373	0.1064644424341998	0.0762772154406886	1.9924939197067562	0.048201130976172804	0.11850733743560184	1.9840981584652797	0.11149666741902982	0.3257891602290185	2.090039475125621	0.1788264179574827	0.3939925236425626	0.6107516589412663	0.18318060403486539	0.3608372109927101	0.3785922498336869	0.18620721366616322	0.3104610459315468	0.493418852264361	0.34198608862833446	0.3782437490786116	0.6824503793599995	0.46422040577587653	0.36790153356948835	0.9200500215660226	0.39222998814888393	0.2007323254889861	1.0227311486974084	0.2820989677695276	0.1557950559387126	1.0382075093596739	0.2793361199632717	0.14931150853409633	1.0532985894942342	0.31766602822155543	0.11828219255478742	1.0876355330778822	0.02733287487857498	0.39122678958654	0.6985496746386607	-0.07790155813874743	0.3994173677237781	0.9584205316755467	-0.05105467699299006	0.2664411262780522	1.1170253294119117	0.018651865078482665	0.2093357954973663	1.168748329273506	0.0007748267993159906	0.18852347207626824	1.1745869548166636	-0.032161075286291745	0.2072339036658409	1.2132794804498321
